<?xml version="1.0" encoding="utf-8"?>
<!-- Generator: Adobe Illustrator 23.0.3, SVG Export Plug-In . SVG Version: 6.00 Build 0)  -->
<svg version="1.1" id="Layer_1" xmlns="http://www.w3.org/2000/svg" xmlns:xlink="http://www.w3.org/1999/xlink" x="0px" y="0px"
	 viewBox="0 0 272 180" style="enable-background:new 0 0 272 180;" xml:space="preserve">
<rect style="fill:#E91E63;" width="272" height="180"/>
<linearGradient id="new-shadow_1_" gradientUnits="userSpaceOnUse" x1="126.5061" y1="71.0097" x2="321.7464" y2="266.25">
	<stop  offset="0" style="stop-color:#263238;stop-opacity:0.2"/>
	<stop  offset="1" style="stop-color:#263238;stop-opacity:0"/>
</linearGradient>
<path id="new-shadow" style="fill:url(#new-shadow_1_);" d="M90,135v-24c0,0-0.223-3.433,3.389-4.717h8.292
	c0,0,3.32,1.717,2.32,3.717c0,0,3,0,4,3l0.983,0.774L109,95c0,0-0.221-5.034,5.889-4.017L119,91c0,0,4,0,4,4c0,0,3,0,3,3
	l1.541,0.239V74c0,0,0.564-5.08,6.512-4.04l4.485,0.102c0,0,3.265,1.183,2.864,3.061c0,0,3.599,0.877,3.599,3.877l1.359,0.495V53
	c0,0-0.625-5.083,7.008-4.041c0,0,6.383-0.946,7.008,3.048c0,0,3.625,1.994,3.625,3.994l1.046,0.272L165,37
	c0,0-1.198-5.787,8.401-4.394c0,0,4.244-1.207,5.421,2.594L272,115.727V180H136C136,180,90,136,90,135z"/>
<g id="fill-bar">
	<path style="fill:#FFFFFF;" d="M119.063,91.006h-6.144c-2.165,0-3.936,1.771-3.936,3.936v38.848c0,2.165,1.771,3.936,3.936,3.936
		h6.144c2.165,0,3.936-1.771,3.936-3.936V94.942C123,92.777,121.228,91.006,119.063,91.006z"/>
	<path style="fill:#FFFFFF;" d="M100.376,106.19h-6.144c-2.165,0-3.936,1.771-3.936,3.936v23.664c0,2.165,1.771,3.936,3.936,3.936
		h6.144c2.165,0,3.936-1.771,3.936-3.936v-23.664C104.311,107.96,102.541,106.19,100.376,106.19z"/>
	<path style="fill:#FFFFFF;" d="M137.752,69.982h-6.144c-2.165,0-3.936,1.771-3.936,3.936v59.871c0,2.165,1.771,3.936,3.936,3.936
		h6.144c2.165,0,3.936-1.771,3.936-3.936V73.918C141.687,71.753,139.917,69.982,137.752,69.982z"/>
	<path style="fill:#FFFFFF;" d="M156.439,48.959h-6.144c-2.165,0-3.936,1.771-3.936,3.936v80.895c0,2.165,1.771,3.936,3.936,3.936
		h6.144c2.165,0,3.936-1.771,3.936-3.936V52.894C160.375,50.729,158.604,48.959,156.439,48.959z"/>
	<path style="fill:#FFFFFF;" d="M175.126,32.606h-6.144c-2.165,0-3.936,1.771-3.936,3.936v97.247c0,2.165,1.771,3.936,3.936,3.936
		h6.144c2.165,0,3.936-1.771,3.936-3.936V36.542C179.063,34.377,177.291,32.606,175.126,32.606z"/>
</g>
<path style="opacity:0.2;fill:#263238;enable-background:new    ;" d="M119.063,91.006h-6.144c-2.165,0-3.936,1.771-3.936,3.936
	v1.251c0-2.165,1.771-3.936,3.936-3.936h6.144c2.165,0,3.936,1.771,3.936,3.936v-1.251C123,92.777,121.228,91.006,119.063,91.006z"
	/>
<path style="opacity:0.2;fill:#263238;enable-background:new    ;" d="M137.752,69.982h-6.144c-2.165,0-3.936,1.771-3.936,3.936
	v1.251c0-2.165,1.771-3.936,3.936-3.936h6.144c2.165,0,3.936,1.771,3.936,3.936v-1.251
	C141.687,71.753,139.917,69.982,137.752,69.982z"/>
<path style="opacity:0.2;fill:#263238;enable-background:new    ;" d="M156.439,48.959h-6.144c-2.165,0-3.936,1.771-3.936,3.936
	v1.251c0-2.165,1.771-3.936,3.936-3.936h6.144c2.165,0,3.936,1.771,3.936,3.936v-1.251
	C160.375,50.729,158.604,48.959,156.439,48.959z"/>
<path style="opacity:0.2;fill:#263238;enable-background:new    ;" d="M175.126,32.606h-6.144c-2.165,0-3.936,1.771-3.936,3.936
	v1.251c0-2.165,1.771-3.936,3.936-3.936h6.144c2.165,0,3.936,1.771,3.936,3.936v-1.251
	C179.063,34.377,177.291,32.606,175.126,32.606z"/>
<path style="opacity:0.2;fill:#263238;enable-background:new    ;" d="M100.376,106.19h-6.144c-2.165,0-3.936,1.771-3.936,3.936
	v1.251c0-2.165,1.771-3.936,3.936-3.936h6.144c2.165,0,3.936,1.771,3.936,3.936v-1.251
	C104.311,107.96,102.541,106.19,100.376,106.19z"/>
<path style="opacity:0.4;fill:#263238;enable-background:new    ;" d="M94.149,138.741h6.144c2.165,0,3.936-1.771,3.936-3.936
	v-1.251c0,2.165-1.771,3.936-3.936,3.936h-6.144c-2.165,0-3.936-1.771-3.936-3.936v1.251
	C90.213,136.969,91.984,138.741,94.149,138.741z"/>
<path style="opacity:0.4;fill:#263238;enable-background:new    ;" d="M112.92,138.741h6.144c2.165,0,3.936-1.771,3.936-3.936
	v-1.251c0,2.165-1.771,3.936-3.936,3.936h-6.144c-2.165,0-3.936-1.771-3.936-3.936v1.251
	C108.984,136.969,110.755,138.741,112.92,138.741z"/>
<path style="opacity:0.4;fill:#263238;enable-background:new    ;" d="M131.691,138.741h6.144c2.165,0,3.936-1.771,3.936-3.936
	v-1.251c0,2.165-1.771,3.936-3.936,3.936h-6.144c-2.165,0-3.936-1.771-3.936-3.936v1.251
	C127.755,136.969,129.526,138.741,131.691,138.741z"/>
<path style="opacity:0.4;fill:#263238;enable-background:new    ;" d="M150.296,138.741h6.144c2.165,0,3.936-1.771,3.936-3.936
	v-1.251c0,2.165-1.771,3.936-3.936,3.936h-6.144c-2.165,0-3.936-1.771-3.936-3.936v1.251
	C146.359,136.969,148.131,138.741,150.296,138.741z"/>
<path style="opacity:0.4;fill:#263238;enable-background:new    ;" d="M168.983,138.741h6.144c2.165,0,3.936-1.771,3.936-3.936
	v-1.251c0,2.165-1.771,3.936-3.936,3.936h-6.144c-2.165,0-3.936-1.771-3.936-3.936v1.251
	C165.048,136.969,166.818,138.741,168.983,138.741z"/>
</svg>
