<?xml version="1.0" encoding="utf-8"?>
<!-- Generator: Adobe Illustrator 23.0.3, SVG Export Plug-In . SVG Version: 6.00 Build 0)  -->
<svg version="1.1" id="Layer_1" xmlns="http://www.w3.org/2000/svg" xmlns:xlink="http://www.w3.org/1999/xlink" x="0px" y="0px"
	 viewBox="0 0 272 180" style="enable-background:new 0 0 272 180;" xml:space="preserve">
<rect style="fill:#FBC02D;" width="272" height="180"/>
<linearGradient id="SVGID_1_" gradientUnits="userSpaceOnUse" x1="100.5912" y1="105" x2="272" y2="105">
	<stop  offset="0" style="stop-color:#263238;stop-opacity:0.2"/>
	<stop  offset="0.9995" style="stop-color:#263238;stop-opacity:0"/>
</linearGradient>
<path style="fill:url(#SVGID_1_);" d="M107,139l13-56l-10-11c0,0-19-15-3-37c0,0,5-5,6-4l12,13c0,0,10-7,18,1l12-15l117,75v75H158
	L107,139z"/>
<g id="longshadow" style="display:none;">
	<g style="display:inline;">
		<path style="fill:none;" d="M107.57,139.253l13.007-56.503c-0.537-0.529-6.728-6.673-7.789-7.898
			c-0.951-0.823-2.013-1.849-3.074-3.074c-5.36-4.639-14.377-15.693-5.448-32.741c0,0,6.608-7.709,8.81-7.709l2.59,3.171
			c0.177-0.061,0.341-0.097,0.485-0.097l2.59,3.171c0.177-0.061,0.341-0.097,0.485-0.097l2.59,3.171
			c0.177-0.061,0.341-0.097,0.485-0.097l2.59,3.171c0.177-0.061,0.341-0.097,0.485-0.097l0.383,0.469
			c2.695-1.907,9.145-5.059,16.815,1.103l12.351-14.968c0,0,45.042,44.653,66.007,65.504C220.959,94.823,221,93.916,221,93
			c0-48.048-38.952-87-87-87S47,44.952,47,93s38.952,87,87,87c6.396,0,12.624-0.71,18.627-2.02
			C129.981,158.274,108.59,139.764,107.57,139.253z"/>
		
			<linearGradient id="SVGID_2_" gradientUnits="userSpaceOnUse" x1="94.8929" y1="133.8645" x2="247.0453" y2="-18.2879" gradientTransform="matrix(1 0 0 -1 0 182)">
			<stop  offset="0" style="stop-color:#263238;stop-opacity:0.2"/>
			<stop  offset="0.9995" style="stop-color:#263238;stop-opacity:0"/>
		</linearGradient>
		<path style="fill:url(#SVGID_2_);" d="M142.572,45.2c-7.67-6.163-14.12-3.012-16.815-1.103l-12.681-12.767
			c-2.203,0-8.81,7.709-8.81,7.709c-8.929,17.048,0.088,28.102,5.448,32.741c1.061,1.226,2.122,2.251,3.074,3.074
			c1.062,1.226,7.252,7.37,7.789,7.898l-13.007,56.503c1.021,0.511,22.412,19.021,45.057,38.727
			c38.234-8.343,67.054-41.815,68.304-82.248c-20.965-20.851-66.007-65.504-66.007-65.504L142.572,45.2z"/>
	</g>
</g>
<g id="satellite">
	<path style="fill:#FFFFFF;" d="M160.675,139.214l-19.641-84.122c-0.124-0.532-0.661-0.866-1.193-0.741
		c-0.532,0.124-0.866,0.661-0.741,1.193l7.171,30.713l-11.278,3.48V55.268c0-0.546-0.447-0.993-0.993-0.993
		c-0.546,0-0.993,0.447-0.993,0.993v34.547l-11.295-3.486l7.188-30.788c0.124-0.532-0.209-1.068-0.741-1.193
		c-0.532-0.124-1.068,0.209-1.193,0.741l-19.641,84.122c-0.124,0.532,0.209,1.068,0.741,1.193c0.532,0.124,1.068-0.209,1.193-0.741
		l3.515-15.058c0.094,0.074,0.198,0.137,0.319,0.174l19.351,5.971c0.192,0.059,0.382,0.04,0.562-0.013v21.837
		c0,0.546,0.447,0.993,0.993,0.993s0.993-0.447,0.993-0.993v-21.828c0.172,0.044,0.351,0.059,0.532,0.003l19.351-5.971
		c0.131-0.041,0.247-0.106,0.346-0.189l3.52,15.073c0.124,0.532,0.661,0.866,1.193,0.741
		C160.465,140.282,160.798,139.745,160.675,139.214z M146.723,88.194l3.47,14.863l-15.201,4.69V91.814L146.723,88.194z
		 M132.917,91.866c0.03,0.009,0.059,0.002,0.09,0.009v15.813l-15.188-4.686l3.44-14.733L132.917,91.866z M113.679,122.884
		c-0.17-0.053-0.338-0.042-0.501-0.006l4.188-17.937l15.55,4.798c0.03,0.009,0.059,0.002,0.09,0.009v19.099L113.679,122.884z
		 M154.29,122.884l-19.297,5.955v-19.072c0.094-0.001,0.188,0.001,0.283-0.028l15.37-4.743l4.177,17.892
		C154.652,122.843,154.471,122.828,154.29,122.884z"/>
	<circle style="fill:#FFFFFF;" cx="133.728" cy="53.282" r="11.985"/>
	<g>
		<path style="fill:#FFFFFF;" d="M154.406,73.372c-0.154-0.251-0.308-0.503-0.463-0.754c-0.156-0.259-0.008-0.64,0.32-0.855
			c14.018-9.166,14.018-29.782,0-38.947c-0.328-0.215-0.477-0.596-0.32-0.855c0.154-0.251,0.308-0.503,0.463-0.754
			c0.156-0.259,0.588-0.286,0.948-0.052c15.213,9.948,15.213,32.321,0,42.269C154.995,73.658,154.563,73.631,154.406,73.372z"/>
	</g>
	<g>
		<path style="fill:#FFFFFF;" d="M113.651,72.618c-0.154,0.251-0.308,0.503-0.463,0.754c-0.156,0.259-0.588,0.286-0.948,0.052
			c-15.213-9.948-15.213-32.321,0-42.269c0.359-0.236,0.791-0.207,0.948,0.052c0.154,0.251,0.308,0.503,0.463,0.754
			c0.156,0.259,0.008,0.64-0.32,0.855c-14.018,9.166-14.018,29.782,0,38.947C113.659,71.978,113.807,72.358,113.651,72.618z"/>
	</g>
	<g>
		<path style="fill:#FFFFFF;" d="M119.609,64.674c-0.154,0.251-0.308,0.503-0.463,0.754c-0.155,0.26-0.605,0.279-0.976,0.024
			c-9.244-6.307-9.244-20.02,0-26.327c0.372-0.254,0.82-0.236,0.976,0.024c0.154,0.251,0.308,0.503,0.463,0.754
			c0.156,0.26,0.006,0.64-0.315,0.859c-8.094,5.522-8.094,17.529,0,23.052C119.614,64.035,119.764,64.414,119.609,64.674z"/>
	</g>
	<g>
		<path style="fill:#FFFFFF;" d="M148.449,65.429c-0.154-0.251-0.308-0.503-0.463-0.754c-0.156-0.26-0.006-0.64,0.315-0.859
			c8.094-5.522,8.094-17.529,0-23.052c-0.32-0.219-0.47-0.599-0.315-0.859c0.154-0.251,0.308-0.503,0.463-0.754
			c0.155-0.26,0.605-0.279,0.976-0.024c9.244,6.307,9.244,20.02,0,26.327C149.052,65.706,148.604,65.688,148.449,65.429z"/>
	</g>
</g>
<g style="opacity:0.2;">
	<path style="fill:#263238;" d="M126.877,63.107l-5.165,22.121l0.24,0.074l5.146-22.04
		C127.022,63.213,126.951,63.159,126.877,63.107z"/>
	<path style="fill:#263238;" d="M140.823,62.924l5.208,22.304l0.24-0.074l-5.229-22.393C140.97,62.817,140.897,62.87,140.823,62.924
		z"/>
	<polygon style="fill:#263238;" points="146.723,87.093 134.993,90.713 134.993,91.814 146.723,88.194 149.954,102.03 
		150.193,101.957 	"/>
	<path style="fill:#263238;" d="M132.917,108.638l-15.55-4.798l-4.188,17.937c0.086-0.019,0.175-0.029,0.263-0.029l3.924-16.808
		l15.55,4.798c0.03,0.009,0.059,0.002,0.09,0.009v-1.101C132.977,108.64,132.947,108.647,132.917,108.638z"/>
	<path style="fill:#263238;" d="M134,152.468c-0.546,0-0.993-0.447-0.993-0.993v1.101c0,0.546,0.447,0.993,0.993,0.993
		s0.993-0.447,0.993-0.993v-1.101C134.993,152.021,134.546,152.468,134,152.468z"/>
	<path style="fill:#263238;" d="M132.917,90.764l-11.658-3.597l-3.44,14.733l0.24,0.074l3.2-13.706l11.658,3.597
		c0.03,0.009,0.059,0.002,0.09,0.009v-1.101C132.977,90.768,132.947,90.774,132.917,90.764z"/>
	<path style="fill:#263238;" d="M160.576,138.792c-0.13,0.248-0.351,0.445-0.643,0.512c-0.532,0.124-1.068-0.209-1.193-0.741
		l-3.52-15.073c-0.099,0.084-0.215,0.149-0.346,0.189l-19.351,5.971c-0.181,0.056-0.36,0.041-0.532-0.003v1.101
		c0.172,0.044,0.351,0.059,0.532,0.003l19.351-5.971c0.131-0.041,0.247-0.106,0.346-0.189l3.52,15.073
		c0.124,0.532,0.661,0.866,1.193,0.741c0.532-0.124,0.866-0.661,0.741-1.193L160.576,138.792z"/>
	<path style="fill:#263238;" d="M133.007,129.638c-0.18,0.052-0.37,0.072-0.562,0.013l-19.351-5.971
		c-0.12-0.037-0.226-0.1-0.319-0.174l-3.515,15.058c-0.124,0.532-0.661,0.866-1.193,0.741c-0.292-0.068-0.513-0.265-0.643-0.512
		l-0.098,0.421c-0.124,0.532,0.209,1.068,0.741,1.193c0.532,0.124,1.068-0.209,1.193-0.741l3.515-15.058
		c0.094,0.074,0.198,0.137,0.319,0.174l19.351,5.971c0.192,0.059,0.382,0.04,0.562-0.013V129.638z"/>
	<path style="fill:#263238;" d="M150.646,103.895l-15.37,4.743c-0.095,0.029-0.188,0.028-0.283,0.028v1.101
		c0.094-0.001,0.188,0.001,0.283-0.028l15.37-4.743l3.911,16.751c0.09,0.002,0.18,0.017,0.266,0.04L150.646,103.895z"/>
</g>
<path style="opacity:0.2;fill:#263238;enable-background:new    ;" d="M133.728,41.281c-6.606,0-11.963,5.355-11.963,11.963
	c0,0.186,0.02,0.367,0.028,0.551c0.29-6.35,5.514-11.412,11.936-11.412c6.421,0,11.645,5.063,11.934,11.412
	c0.009-0.184,0.028-0.365,0.028-0.551C145.691,46.638,140.334,41.281,133.728,41.281z"/>
</svg>
